<svg id="Layer_1" data-name="Layer 1" xmlns="http://www.w3.org/2000/svg" viewBox="0 0 605 130"><defs><style>.cls-1{fill:#eb712a;}.cls-2{fill:#fff;}.cls-3{fill:none;}</style></defs><polygon class="cls-1" points="32.69 126.53 2.5 126.53 2.5 3.91 32.69 3.91 32.69 65.22 32.69 126.53"/><polygon class="cls-2" points="91.56 77.08 91.56 126.53 38.11 126.53 91.56 77.08"/><polygon class="cls-2" points="91.56 53.36 91.56 3.91 38.11 3.91 91.56 53.36"/><path class="cls-2" d="M236.48,106.24v13.58h-67V17.63h66.16V31.35H184.93V62.74h40.3V76.32h-40.3v29.92Z"/><path class="cls-2" d="M307.31,120H290.93v-.88L276,95.44l-14.94,23.65V120H245l13.81-21.46,9.48-15.33L245.65,47.12h16L276,70.33l14.29-23.21h16.22L283.87,83.18l9.63,15.33Z"/><path class="cls-2" d="M386.6,83.32c0,20.29-17.51,36.35-38.86,36.35-21.52,0-39-16.06-39-36.35,0-20.14,17.51-36.35,39-36.35C369.09,47,386.6,63.18,386.6,83.32Zm-14.13,0c0-12.7-11.08-23.06-24.73-23.06-13.82,0-24.9,10.36-24.9,23.06s11.08,23.07,24.9,23.07C361.39,106.39,372.47,96,372.47,83.32Z"/><path class="cls-2" d="M409.84,55.73a41.21,41.21,0,0,1,24.89-8.32V60.26c-14,0-23.61,10.51-24.89,22.92v36.64H395.38V46.68h14.46Z"/><path class="cls-2" d="M514.73,10.33V119.67H500.28v-8.46a40,40,0,0,1-24.57,8.46c-21.52,0-39-16.64-39-36.79s17.5-36.35,39-36.35a39.72,39.72,0,0,1,24.57,8V10.33ZM500.28,86V79.82C499,68.43,488.56,59.67,475.71,59.67,462.06,59.67,451,70,451,82.88s11.08,23.22,24.73,23.22C488.56,106.1,499,97.34,500.28,86Z"/><path class="cls-2" d="M602.5,83.47a25.93,25.93,0,0,1-.64,6.42H539.23c2.89,9.93,12.52,16.94,23.76,16.94a23.67,23.67,0,0,0,13.49-3.8H596.4c-6.91,10.51-19.27,17.08-33.41,17.08-21.35,0-39.18-16.2-39.18-36.64S541.64,46.68,563,46.68C584.83,46.68,602.5,63,602.5,83.47ZM539.23,76.9h47.85C584.19,67.26,574.4,60,563,60A24.54,24.54,0,0,0,539.23,76.9Z"/><rect class="cls-3" width="605" height="130"/></svg>